<?xml version="1.0" encoding="utf-8" standalone="no"?>
<!DOCTYPE svg PUBLIC "-//W3C//DTD SVG 1.1//EN"
  "http://www.w3.org/Graphics/SVG/1.1/DTD/svg11.dtd">
<svg height="345.6pt" version="1.1" viewBox="0 0 460.8 345.6" width="460.8pt" xmlns="http://www.w3.org/2000/svg" xmlns:xlink="http://www.w3.org/1999/xlink">
 <metadata>
  <rdf:RDF xmlns:cc="http://creativecommons.org/ns#" xmlns:dc="http://purl.org/dc/elements/1.1/" xmlns:rdf="http://www.w3.org/1999/02/22-rdf-syntax-ns#">
   <cc:Work>
    <dc:type rdf:resource="http://purl.org/dc/dcmitype/StillImage"/>
    <dc:date>2021-12-07T17:44:30.305110</dc:date>
    <dc:format>image/svg+xml</dc:format>
    <dc:creator>
     <cc:Agent>
      <dc:title>Matplotlib v3.4.3, https://matplotlib.org/</dc:title>
     </cc:Agent>
    </dc:creator>
   </cc:Work>
  </rdf:RDF>
 </metadata>
 <defs>
  <style type="text/css">*{stroke-linecap:butt;stroke-linejoin:round;}</style>
 </defs>
 <g id="figure_1">
  <g id="patch_1">
   <path d="M 0 345.6 
L 460.8 345.6 
L 460.8 0 
L 0 0 
z
" style="fill:#ffffff;"/>
  </g>
  <g id="axes_1">
   <g id="patch_2">
    <path d="M 38.27 303.64 
L 447.390382 303.64 
L 447.390382 14.76 
L 38.27 14.76 
z
" style="fill:#ffffff;"/>
   </g>
   <g id="matplotlib.axis_1">
    <g id="xtick_1">
     <g id="line2d_1">
      <defs>
       <path d="M 0 0 
L 0 3.5 
" id="mf77f8c1a43" style="stroke:#000000;stroke-width:0.8;"/>
      </defs>
      <g>
       <use style="stroke:#000000;stroke-width:0.8;" x="56.324212" xlink:href="#mf77f8c1a43" y="303.64"/>
      </g>
     </g>
     <g id="text_1">
      <!-- 900 -->
      <g transform="translate(46.780462 318.238437)scale(0.1 -0.1)">
       <defs>
        <path d="M 703 97 
L 703 672 
Q 941 559 1184 500 
Q 1428 441 1663 441 
Q 2288 441 2617 861 
Q 2947 1281 2994 2138 
Q 2813 1869 2534 1725 
Q 2256 1581 1919 1581 
Q 1219 1581 811 2004 
Q 403 2428 403 3163 
Q 403 3881 828 4315 
Q 1253 4750 1959 4750 
Q 2769 4750 3195 4129 
Q 3622 3509 3622 2328 
Q 3622 1225 3098 567 
Q 2575 -91 1691 -91 
Q 1453 -91 1209 -44 
Q 966 3 703 97 
z
M 1959 2075 
Q 2384 2075 2632 2365 
Q 2881 2656 2881 3163 
Q 2881 3666 2632 3958 
Q 2384 4250 1959 4250 
Q 1534 4250 1286 3958 
Q 1038 3666 1038 3163 
Q 1038 2656 1286 2365 
Q 1534 2075 1959 2075 
z
" id="DejaVuSans-39" transform="scale(0.015625)"/>
        <path d="M 2034 4250 
Q 1547 4250 1301 3770 
Q 1056 3291 1056 2328 
Q 1056 1369 1301 889 
Q 1547 409 2034 409 
Q 2525 409 2770 889 
Q 3016 1369 3016 2328 
Q 3016 3291 2770 3770 
Q 2525 4250 2034 4250 
z
M 2034 4750 
Q 2819 4750 3233 4129 
Q 3647 3509 3647 2328 
Q 3647 1150 3233 529 
Q 2819 -91 2034 -91 
Q 1250 -91 836 529 
Q 422 1150 422 2328 
Q 422 3509 836 4129 
Q 1250 4750 2034 4750 
z
" id="DejaVuSans-30" transform="scale(0.015625)"/>
       </defs>
       <use xlink:href="#DejaVuSans-39"/>
       <use x="63.623047" xlink:href="#DejaVuSans-30"/>
       <use x="127.246094" xlink:href="#DejaVuSans-30"/>
      </g>
     </g>
    </g>
    <g id="xtick_2">
     <g id="line2d_2">
      <g>
       <use style="stroke:#000000;stroke-width:0.8;" x="110.541067" xlink:href="#mf77f8c1a43" y="303.64"/>
      </g>
     </g>
     <g id="text_2">
      <!-- 1000 -->
      <g transform="translate(97.816067 318.238437)scale(0.1 -0.1)">
       <defs>
        <path d="M 794 531 
L 1825 531 
L 1825 4091 
L 703 3866 
L 703 4441 
L 1819 4666 
L 2450 4666 
L 2450 531 
L 3481 531 
L 3481 0 
L 794 0 
L 794 531 
z
" id="DejaVuSans-31" transform="scale(0.015625)"/>
       </defs>
       <use xlink:href="#DejaVuSans-31"/>
       <use x="63.623047" xlink:href="#DejaVuSans-30"/>
       <use x="127.246094" xlink:href="#DejaVuSans-30"/>
       <use x="190.869141" xlink:href="#DejaVuSans-30"/>
      </g>
     </g>
    </g>
    <g id="xtick_3">
     <g id="line2d_3">
      <g>
       <use style="stroke:#000000;stroke-width:0.8;" x="164.757921" xlink:href="#mf77f8c1a43" y="303.64"/>
      </g>
     </g>
     <g id="text_3">
      <!-- 1100 -->
      <g transform="translate(152.032921 318.238437)scale(0.1 -0.1)">
       <use xlink:href="#DejaVuSans-31"/>
       <use x="63.623047" xlink:href="#DejaVuSans-31"/>
       <use x="127.246094" xlink:href="#DejaVuSans-30"/>
       <use x="190.869141" xlink:href="#DejaVuSans-30"/>
      </g>
     </g>
    </g>
    <g id="xtick_4">
     <g id="line2d_4">
      <g>
       <use style="stroke:#000000;stroke-width:0.8;" x="218.974775" xlink:href="#mf77f8c1a43" y="303.64"/>
      </g>
     </g>
     <g id="text_4">
      <!-- 1200 -->
      <g transform="translate(206.249775 318.238437)scale(0.1 -0.1)">
       <defs>
        <path d="M 1228 531 
L 3431 531 
L 3431 0 
L 469 0 
L 469 531 
Q 828 903 1448 1529 
Q 2069 2156 2228 2338 
Q 2531 2678 2651 2914 
Q 2772 3150 2772 3378 
Q 2772 3750 2511 3984 
Q 2250 4219 1831 4219 
Q 1534 4219 1204 4116 
Q 875 4013 500 3803 
L 500 4441 
Q 881 4594 1212 4672 
Q 1544 4750 1819 4750 
Q 2544 4750 2975 4387 
Q 3406 4025 3406 3419 
Q 3406 3131 3298 2873 
Q 3191 2616 2906 2266 
Q 2828 2175 2409 1742 
Q 1991 1309 1228 531 
z
" id="DejaVuSans-32" transform="scale(0.015625)"/>
       </defs>
       <use xlink:href="#DejaVuSans-31"/>
       <use x="63.623047" xlink:href="#DejaVuSans-32"/>
       <use x="127.246094" xlink:href="#DejaVuSans-30"/>
       <use x="190.869141" xlink:href="#DejaVuSans-30"/>
      </g>
     </g>
    </g>
    <g id="xtick_5">
     <g id="line2d_5">
      <g>
       <use style="stroke:#000000;stroke-width:0.8;" x="273.191629" xlink:href="#mf77f8c1a43" y="303.64"/>
      </g>
     </g>
     <g id="text_5">
      <!-- 1300 -->
      <g transform="translate(260.466629 318.238437)scale(0.1 -0.1)">
       <defs>
        <path d="M 2597 2516 
Q 3050 2419 3304 2112 
Q 3559 1806 3559 1356 
Q 3559 666 3084 287 
Q 2609 -91 1734 -91 
Q 1441 -91 1130 -33 
Q 819 25 488 141 
L 488 750 
Q 750 597 1062 519 
Q 1375 441 1716 441 
Q 2309 441 2620 675 
Q 2931 909 2931 1356 
Q 2931 1769 2642 2001 
Q 2353 2234 1838 2234 
L 1294 2234 
L 1294 2753 
L 1863 2753 
Q 2328 2753 2575 2939 
Q 2822 3125 2822 3475 
Q 2822 3834 2567 4026 
Q 2313 4219 1838 4219 
Q 1578 4219 1281 4162 
Q 984 4106 628 3988 
L 628 4550 
Q 988 4650 1302 4700 
Q 1616 4750 1894 4750 
Q 2613 4750 3031 4423 
Q 3450 4097 3450 3541 
Q 3450 3153 3228 2886 
Q 3006 2619 2597 2516 
z
" id="DejaVuSans-33" transform="scale(0.015625)"/>
       </defs>
       <use xlink:href="#DejaVuSans-31"/>
       <use x="63.623047" xlink:href="#DejaVuSans-33"/>
       <use x="127.246094" xlink:href="#DejaVuSans-30"/>
       <use x="190.869141" xlink:href="#DejaVuSans-30"/>
      </g>
     </g>
    </g>
    <g id="xtick_6">
     <g id="line2d_6">
      <g>
       <use style="stroke:#000000;stroke-width:0.8;" x="327.408483" xlink:href="#mf77f8c1a43" y="303.64"/>
      </g>
     </g>
     <g id="text_6">
      <!-- 1400 -->
      <g transform="translate(314.683483 318.238437)scale(0.1 -0.1)">
       <defs>
        <path d="M 2419 4116 
L 825 1625 
L 2419 1625 
L 2419 4116 
z
M 2253 4666 
L 3047 4666 
L 3047 1625 
L 3713 1625 
L 3713 1100 
L 3047 1100 
L 3047 0 
L 2419 0 
L 2419 1100 
L 313 1100 
L 313 1709 
L 2253 4666 
z
" id="DejaVuSans-34" transform="scale(0.015625)"/>
       </defs>
       <use xlink:href="#DejaVuSans-31"/>
       <use x="63.623047" xlink:href="#DejaVuSans-34"/>
       <use x="127.246094" xlink:href="#DejaVuSans-30"/>
       <use x="190.869141" xlink:href="#DejaVuSans-30"/>
      </g>
     </g>
    </g>
    <g id="xtick_7">
     <g id="line2d_7">
      <g>
       <use style="stroke:#000000;stroke-width:0.8;" x="381.625338" xlink:href="#mf77f8c1a43" y="303.64"/>
      </g>
     </g>
     <g id="text_7">
      <!-- 1500 -->
      <g transform="translate(368.900338 318.238437)scale(0.1 -0.1)">
       <defs>
        <path d="M 691 4666 
L 3169 4666 
L 3169 4134 
L 1269 4134 
L 1269 2991 
Q 1406 3038 1543 3061 
Q 1681 3084 1819 3084 
Q 2600 3084 3056 2656 
Q 3513 2228 3513 1497 
Q 3513 744 3044 326 
Q 2575 -91 1722 -91 
Q 1428 -91 1123 -41 
Q 819 9 494 109 
L 494 744 
Q 775 591 1075 516 
Q 1375 441 1709 441 
Q 2250 441 2565 725 
Q 2881 1009 2881 1497 
Q 2881 1984 2565 2268 
Q 2250 2553 1709 2553 
Q 1456 2553 1204 2497 
Q 953 2441 691 2322 
L 691 4666 
z
" id="DejaVuSans-35" transform="scale(0.015625)"/>
       </defs>
       <use xlink:href="#DejaVuSans-31"/>
       <use x="63.623047" xlink:href="#DejaVuSans-35"/>
       <use x="127.246094" xlink:href="#DejaVuSans-30"/>
       <use x="190.869141" xlink:href="#DejaVuSans-30"/>
      </g>
     </g>
    </g>
    <g id="xtick_8">
     <g id="line2d_8">
      <g>
       <use style="stroke:#000000;stroke-width:0.8;" x="435.842192" xlink:href="#mf77f8c1a43" y="303.64"/>
      </g>
     </g>
     <g id="text_8">
      <!-- 1600 -->
      <g transform="translate(423.117192 318.238437)scale(0.1 -0.1)">
       <defs>
        <path d="M 2113 2584 
Q 1688 2584 1439 2293 
Q 1191 2003 1191 1497 
Q 1191 994 1439 701 
Q 1688 409 2113 409 
Q 2538 409 2786 701 
Q 3034 994 3034 1497 
Q 3034 2003 2786 2293 
Q 2538 2584 2113 2584 
z
M 3366 4563 
L 3366 3988 
Q 3128 4100 2886 4159 
Q 2644 4219 2406 4219 
Q 1781 4219 1451 3797 
Q 1122 3375 1075 2522 
Q 1259 2794 1537 2939 
Q 1816 3084 2150 3084 
Q 2853 3084 3261 2657 
Q 3669 2231 3669 1497 
Q 3669 778 3244 343 
Q 2819 -91 2113 -91 
Q 1303 -91 875 529 
Q 447 1150 447 2328 
Q 447 3434 972 4092 
Q 1497 4750 2381 4750 
Q 2619 4750 2861 4703 
Q 3103 4656 3366 4563 
z
" id="DejaVuSans-36" transform="scale(0.015625)"/>
       </defs>
       <use xlink:href="#DejaVuSans-31"/>
       <use x="63.623047" xlink:href="#DejaVuSans-36"/>
       <use x="127.246094" xlink:href="#DejaVuSans-30"/>
       <use x="190.869141" xlink:href="#DejaVuSans-30"/>
      </g>
     </g>
    </g>
    <g id="text_9">
     <!-- Iteration -->
     <g transform="translate(221.621597 331.916562)scale(0.1 -0.1)">
      <defs>
       <path d="M 628 4666 
L 1259 4666 
L 1259 0 
L 628 0 
L 628 4666 
z
" id="DejaVuSans-49" transform="scale(0.015625)"/>
       <path d="M 1172 4494 
L 1172 3500 
L 2356 3500 
L 2356 3053 
L 1172 3053 
L 1172 1153 
Q 1172 725 1289 603 
Q 1406 481 1766 481 
L 2356 481 
L 2356 0 
L 1766 0 
Q 1100 0 847 248 
Q 594 497 594 1153 
L 594 3053 
L 172 3053 
L 172 3500 
L 594 3500 
L 594 4494 
L 1172 4494 
z
" id="DejaVuSans-74" transform="scale(0.015625)"/>
       <path d="M 3597 1894 
L 3597 1613 
L 953 1613 
Q 991 1019 1311 708 
Q 1631 397 2203 397 
Q 2534 397 2845 478 
Q 3156 559 3463 722 
L 3463 178 
Q 3153 47 2828 -22 
Q 2503 -91 2169 -91 
Q 1331 -91 842 396 
Q 353 884 353 1716 
Q 353 2575 817 3079 
Q 1281 3584 2069 3584 
Q 2775 3584 3186 3129 
Q 3597 2675 3597 1894 
z
M 3022 2063 
Q 3016 2534 2758 2815 
Q 2500 3097 2075 3097 
Q 1594 3097 1305 2825 
Q 1016 2553 972 2059 
L 3022 2063 
z
" id="DejaVuSans-65" transform="scale(0.015625)"/>
       <path d="M 2631 2963 
Q 2534 3019 2420 3045 
Q 2306 3072 2169 3072 
Q 1681 3072 1420 2755 
Q 1159 2438 1159 1844 
L 1159 0 
L 581 0 
L 581 3500 
L 1159 3500 
L 1159 2956 
Q 1341 3275 1631 3429 
Q 1922 3584 2338 3584 
Q 2397 3584 2469 3576 
Q 2541 3569 2628 3553 
L 2631 2963 
z
" id="DejaVuSans-72" transform="scale(0.015625)"/>
       <path d="M 2194 1759 
Q 1497 1759 1228 1600 
Q 959 1441 959 1056 
Q 959 750 1161 570 
Q 1363 391 1709 391 
Q 2188 391 2477 730 
Q 2766 1069 2766 1631 
L 2766 1759 
L 2194 1759 
z
M 3341 1997 
L 3341 0 
L 2766 0 
L 2766 531 
Q 2569 213 2275 61 
Q 1981 -91 1556 -91 
Q 1019 -91 701 211 
Q 384 513 384 1019 
Q 384 1609 779 1909 
Q 1175 2209 1959 2209 
L 2766 2209 
L 2766 2266 
Q 2766 2663 2505 2880 
Q 2244 3097 1772 3097 
Q 1472 3097 1187 3025 
Q 903 2953 641 2809 
L 641 3341 
Q 956 3463 1253 3523 
Q 1550 3584 1831 3584 
Q 2591 3584 2966 3190 
Q 3341 2797 3341 1997 
z
" id="DejaVuSans-61" transform="scale(0.015625)"/>
       <path d="M 603 3500 
L 1178 3500 
L 1178 0 
L 603 0 
L 603 3500 
z
M 603 4863 
L 1178 4863 
L 1178 4134 
L 603 4134 
L 603 4863 
z
" id="DejaVuSans-69" transform="scale(0.015625)"/>
       <path d="M 1959 3097 
Q 1497 3097 1228 2736 
Q 959 2375 959 1747 
Q 959 1119 1226 758 
Q 1494 397 1959 397 
Q 2419 397 2687 759 
Q 2956 1122 2956 1747 
Q 2956 2369 2687 2733 
Q 2419 3097 1959 3097 
z
M 1959 3584 
Q 2709 3584 3137 3096 
Q 3566 2609 3566 1747 
Q 3566 888 3137 398 
Q 2709 -91 1959 -91 
Q 1206 -91 779 398 
Q 353 888 353 1747 
Q 353 2609 779 3096 
Q 1206 3584 1959 3584 
z
" id="DejaVuSans-6f" transform="scale(0.015625)"/>
       <path d="M 3513 2113 
L 3513 0 
L 2938 0 
L 2938 2094 
Q 2938 2591 2744 2837 
Q 2550 3084 2163 3084 
Q 1697 3084 1428 2787 
Q 1159 2491 1159 1978 
L 1159 0 
L 581 0 
L 581 3500 
L 1159 3500 
L 1159 2956 
Q 1366 3272 1645 3428 
Q 1925 3584 2291 3584 
Q 2894 3584 3203 3211 
Q 3513 2838 3513 2113 
z
" id="DejaVuSans-6e" transform="scale(0.015625)"/>
      </defs>
      <use xlink:href="#DejaVuSans-49"/>
      <use x="29.492188" xlink:href="#DejaVuSans-74"/>
      <use x="68.701172" xlink:href="#DejaVuSans-65"/>
      <use x="130.224609" xlink:href="#DejaVuSans-72"/>
      <use x="171.337891" xlink:href="#DejaVuSans-61"/>
      <use x="232.617188" xlink:href="#DejaVuSans-74"/>
      <use x="271.826172" xlink:href="#DejaVuSans-69"/>
      <use x="299.609375" xlink:href="#DejaVuSans-6f"/>
      <use x="360.791016" xlink:href="#DejaVuSans-6e"/>
     </g>
    </g>
   </g>
   <g id="matplotlib.axis_2">
    <g id="ytick_1">
     <g id="line2d_9">
      <defs>
       <path d="M 0 0 
L -3.5 0 
" id="m4b8f3824c2" style="stroke:#000000;stroke-width:0.8;"/>
      </defs>
      <g>
       <use style="stroke:#000000;stroke-width:0.8;" x="38.27" xlink:href="#m4b8f3824c2" y="303.64"/>
      </g>
     </g>
     <g id="text_10">
      <!-- 0 -->
      <g transform="translate(24.9075 307.439219)scale(0.1 -0.1)">
       <use xlink:href="#DejaVuSans-30"/>
      </g>
     </g>
    </g>
    <g id="ytick_2">
     <g id="line2d_10">
      <g>
       <use style="stroke:#000000;stroke-width:0.8;" x="38.27" xlink:href="#m4b8f3824c2" y="267.53"/>
      </g>
     </g>
     <g id="text_11">
      <!-- 1 -->
      <g transform="translate(24.9075 271.329219)scale(0.1 -0.1)">
       <use xlink:href="#DejaVuSans-31"/>
      </g>
     </g>
    </g>
    <g id="ytick_3">
     <g id="line2d_11">
      <g>
       <use style="stroke:#000000;stroke-width:0.8;" x="38.27" xlink:href="#m4b8f3824c2" y="231.42"/>
      </g>
     </g>
     <g id="text_12">
      <!-- 2 -->
      <g transform="translate(24.9075 235.219219)scale(0.1 -0.1)">
       <use xlink:href="#DejaVuSans-32"/>
      </g>
     </g>
    </g>
    <g id="ytick_4">
     <g id="line2d_12">
      <g>
       <use style="stroke:#000000;stroke-width:0.8;" x="38.27" xlink:href="#m4b8f3824c2" y="195.31"/>
      </g>
     </g>
     <g id="text_13">
      <!-- 3 -->
      <g transform="translate(24.9075 199.109219)scale(0.1 -0.1)">
       <use xlink:href="#DejaVuSans-33"/>
      </g>
     </g>
    </g>
    <g id="ytick_5">
     <g id="line2d_13">
      <g>
       <use style="stroke:#000000;stroke-width:0.8;" x="38.27" xlink:href="#m4b8f3824c2" y="159.2"/>
      </g>
     </g>
     <g id="text_14">
      <!-- 4 -->
      <g transform="translate(24.9075 162.999219)scale(0.1 -0.1)">
       <use xlink:href="#DejaVuSans-34"/>
      </g>
     </g>
    </g>
    <g id="ytick_6">
     <g id="line2d_14">
      <g>
       <use style="stroke:#000000;stroke-width:0.8;" x="38.27" xlink:href="#m4b8f3824c2" y="123.09"/>
      </g>
     </g>
     <g id="text_15">
      <!-- 5 -->
      <g transform="translate(24.9075 126.889219)scale(0.1 -0.1)">
       <use xlink:href="#DejaVuSans-35"/>
      </g>
     </g>
    </g>
    <g id="ytick_7">
     <g id="line2d_15">
      <g>
       <use style="stroke:#000000;stroke-width:0.8;" x="38.27" xlink:href="#m4b8f3824c2" y="86.98"/>
      </g>
     </g>
     <g id="text_16">
      <!-- 6 -->
      <g transform="translate(24.9075 90.779219)scale(0.1 -0.1)">
       <use xlink:href="#DejaVuSans-36"/>
      </g>
     </g>
    </g>
    <g id="ytick_8">
     <g id="line2d_16">
      <g>
       <use style="stroke:#000000;stroke-width:0.8;" x="38.27" xlink:href="#m4b8f3824c2" y="50.87"/>
      </g>
     </g>
     <g id="text_17">
      <!-- 7 -->
      <g transform="translate(24.9075 54.669219)scale(0.1 -0.1)">
       <defs>
        <path d="M 525 4666 
L 3525 4666 
L 3525 4397 
L 1831 0 
L 1172 0 
L 2766 4134 
L 525 4134 
L 525 4666 
z
" id="DejaVuSans-37" transform="scale(0.015625)"/>
       </defs>
       <use xlink:href="#DejaVuSans-37"/>
      </g>
     </g>
    </g>
    <g id="ytick_9">
     <g id="line2d_17">
      <g>
       <use style="stroke:#000000;stroke-width:0.8;" x="38.27" xlink:href="#m4b8f3824c2" y="14.76"/>
      </g>
     </g>
     <g id="text_18">
      <!-- 8 -->
      <g transform="translate(24.9075 18.559219)scale(0.1 -0.1)">
       <defs>
        <path d="M 2034 2216 
Q 1584 2216 1326 1975 
Q 1069 1734 1069 1313 
Q 1069 891 1326 650 
Q 1584 409 2034 409 
Q 2484 409 2743 651 
Q 3003 894 3003 1313 
Q 3003 1734 2745 1975 
Q 2488 2216 2034 2216 
z
M 1403 2484 
Q 997 2584 770 2862 
Q 544 3141 544 3541 
Q 544 4100 942 4425 
Q 1341 4750 2034 4750 
Q 2731 4750 3128 4425 
Q 3525 4100 3525 3541 
Q 3525 3141 3298 2862 
Q 3072 2584 2669 2484 
Q 3125 2378 3379 2068 
Q 3634 1759 3634 1313 
Q 3634 634 3220 271 
Q 2806 -91 2034 -91 
Q 1263 -91 848 271 
Q 434 634 434 1313 
Q 434 1759 690 2068 
Q 947 2378 1403 2484 
z
M 1172 3481 
Q 1172 3119 1398 2916 
Q 1625 2713 2034 2713 
Q 2441 2713 2670 2916 
Q 2900 3119 2900 3481 
Q 2900 3844 2670 4047 
Q 2441 4250 2034 4250 
Q 1625 4250 1398 4047 
Q 1172 3844 1172 3481 
z
" id="DejaVuSans-38" transform="scale(0.015625)"/>
       </defs>
       <use xlink:href="#DejaVuSans-38"/>
      </g>
     </g>
    </g>
    <g id="ytick_10">
     <g id="line2d_18">
      <path clip-path="url(#p4cc9136189)" d="M 38.27 285.585 
L 447.390382 285.585 
" style="fill:none;stroke:#b0b0b0;stroke-linecap:square;stroke-width:0.8;"/>
     </g>
     <g id="line2d_19">
      <defs>
       <path d="M 0 0 
L -2 0 
" id="m82bf95247b" style="stroke:#000000;stroke-width:0.6;"/>
      </defs>
      <g>
       <use style="stroke:#000000;stroke-width:0.6;" x="38.27" xlink:href="#m82bf95247b" y="285.585"/>
      </g>
     </g>
    </g>
    <g id="ytick_11">
     <g id="line2d_20">
      <path clip-path="url(#p4cc9136189)" d="M 38.27 249.475 
L 447.390382 249.475 
" style="fill:none;stroke:#b0b0b0;stroke-linecap:square;stroke-width:0.8;"/>
     </g>
     <g id="line2d_21">
      <g>
       <use style="stroke:#000000;stroke-width:0.6;" x="38.27" xlink:href="#m82bf95247b" y="249.475"/>
      </g>
     </g>
    </g>
    <g id="ytick_12">
     <g id="line2d_22">
      <path clip-path="url(#p4cc9136189)" d="M 38.27 213.365 
L 447.390382 213.365 
" style="fill:none;stroke:#b0b0b0;stroke-linecap:square;stroke-width:0.8;"/>
     </g>
     <g id="line2d_23">
      <g>
       <use style="stroke:#000000;stroke-width:0.6;" x="38.27" xlink:href="#m82bf95247b" y="213.365"/>
      </g>
     </g>
    </g>
    <g id="ytick_13">
     <g id="line2d_24">
      <path clip-path="url(#p4cc9136189)" d="M 38.27 177.255 
L 447.390382 177.255 
" style="fill:none;stroke:#b0b0b0;stroke-linecap:square;stroke-width:0.8;"/>
     </g>
     <g id="line2d_25">
      <g>
       <use style="stroke:#000000;stroke-width:0.6;" x="38.27" xlink:href="#m82bf95247b" y="177.255"/>
      </g>
     </g>
    </g>
    <g id="ytick_14">
     <g id="line2d_26">
      <path clip-path="url(#p4cc9136189)" d="M 38.27 141.145 
L 447.390382 141.145 
" style="fill:none;stroke:#b0b0b0;stroke-linecap:square;stroke-width:0.8;"/>
     </g>
     <g id="line2d_27">
      <g>
       <use style="stroke:#000000;stroke-width:0.6;" x="38.27" xlink:href="#m82bf95247b" y="141.145"/>
      </g>
     </g>
    </g>
    <g id="ytick_15">
     <g id="line2d_28">
      <path clip-path="url(#p4cc9136189)" d="M 38.27 105.035 
L 447.390382 105.035 
" style="fill:none;stroke:#b0b0b0;stroke-linecap:square;stroke-width:0.8;"/>
     </g>
     <g id="line2d_29">
      <g>
       <use style="stroke:#000000;stroke-width:0.6;" x="38.27" xlink:href="#m82bf95247b" y="105.035"/>
      </g>
     </g>
    </g>
    <g id="ytick_16">
     <g id="line2d_30">
      <path clip-path="url(#p4cc9136189)" d="M 38.27 68.925 
L 447.390382 68.925 
" style="fill:none;stroke:#b0b0b0;stroke-linecap:square;stroke-width:0.8;"/>
     </g>
     <g id="line2d_31">
      <g>
       <use style="stroke:#000000;stroke-width:0.6;" x="38.27" xlink:href="#m82bf95247b" y="68.925"/>
      </g>
     </g>
    </g>
    <g id="ytick_17">
     <g id="line2d_32">
      <path clip-path="url(#p4cc9136189)" d="M 38.27 32.815 
L 447.390382 32.815 
" style="fill:none;stroke:#b0b0b0;stroke-linecap:square;stroke-width:0.8;"/>
     </g>
     <g id="line2d_33">
      <g>
       <use style="stroke:#000000;stroke-width:0.6;" x="38.27" xlink:href="#m82bf95247b" y="32.815"/>
      </g>
     </g>
    </g>
    <g id="text_19">
     <!-- Loss -->
     <g transform="translate(18.827813 170.167187)rotate(-90)scale(0.1 -0.1)">
      <defs>
       <path d="M 628 4666 
L 1259 4666 
L 1259 531 
L 3531 531 
L 3531 0 
L 628 0 
L 628 4666 
z
" id="DejaVuSans-4c" transform="scale(0.015625)"/>
       <path d="M 2834 3397 
L 2834 2853 
Q 2591 2978 2328 3040 
Q 2066 3103 1784 3103 
Q 1356 3103 1142 2972 
Q 928 2841 928 2578 
Q 928 2378 1081 2264 
Q 1234 2150 1697 2047 
L 1894 2003 
Q 2506 1872 2764 1633 
Q 3022 1394 3022 966 
Q 3022 478 2636 193 
Q 2250 -91 1575 -91 
Q 1294 -91 989 -36 
Q 684 19 347 128 
L 347 722 
Q 666 556 975 473 
Q 1284 391 1588 391 
Q 1994 391 2212 530 
Q 2431 669 2431 922 
Q 2431 1156 2273 1281 
Q 2116 1406 1581 1522 
L 1381 1569 
Q 847 1681 609 1914 
Q 372 2147 372 2553 
Q 372 3047 722 3315 
Q 1072 3584 1716 3584 
Q 2034 3584 2315 3537 
Q 2597 3491 2834 3397 
z
" id="DejaVuSans-73" transform="scale(0.015625)"/>
      </defs>
      <use xlink:href="#DejaVuSans-4c"/>
      <use x="53.962891" xlink:href="#DejaVuSans-6f"/>
      <use x="115.144531" xlink:href="#DejaVuSans-73"/>
      <use x="167.244141" xlink:href="#DejaVuSans-73"/>
     </g>
    </g>
   </g>
   <g id="line2d_34">
    <path clip-path="url(#p4cc9136189)" d="M 56.866381 138.168417 
L 57.40855 128.601686 
L 57.950718 130.876869 
L 58.492887 128.463312 
L 59.035055 129.282973 
L 59.577224 128.164538 
L 60.119392 129.416472 
L 60.661561 131.810782 
L 61.203729 127.0491 
L 61.745898 120.457256 
L 62.288066 123.290338 
L 62.830235 127.462849 
L 63.372403 121.691099 
L 63.914572 124.826747 
L 64.456741 120.748014 
L 64.998909 125.756615 
L 65.541078 126.363516 
L 66.083246 129.198765 
L 67.167583 132.482247 
L 67.709752 126.686989 
L 68.25192 130.683283 
L 68.794089 126.502828 
L 69.336257 129.183057 
L 69.878426 128.226034 
L 70.420595 128.525747 
L 70.962763 131.622721 
L 71.504932 128.834162 
L 72.0471 129.152905 
L 72.589269 122.972173 
L 73.131437 119.979846 
L 73.673606 119.19467 
L 74.215774 117.795696 
L 74.757943 118.237791 
L 75.300111 116.925626 
L 75.84228 116.097082 
L 76.384448 111.994155 
L 76.926617 114.685145 
L 78.010954 97.228343 
L 78.553123 92.994301 
L 79.095291 95.431184 
L 79.63746 101.878517 
L 80.179628 102.770759 
L 80.721797 112.702309 
L 81.263965 108.309274 
L 81.806134 109.524015 
L 82.348302 112.329834 
L 82.890471 111.086928 
L 83.43264 118.400178 
L 83.974808 114.385179 
L 84.516977 114.138439 
L 85.059145 115.037651 
L 85.601314 112.704511 
L 86.143482 115.175555 
L 86.685651 106.697179 
L 87.227819 106.487489 
L 87.769988 109.93668 
L 88.312156 110.746194 
L 88.854325 116.0388 
L 89.396493 118.950747 
L 89.938662 117.526171 
L 90.480831 116.860844 
L 91.022999 115.603566 
L 91.565168 115.494803 
L 92.107336 117.262171 
L 92.649505 120.14541 
L 93.191673 125.95049 
L 93.733842 127.967378 
L 94.27601 121.103192 
L 94.818179 119.840497 
L 95.360347 121.504013 
L 95.902516 121.682432 
L 96.444685 117.776233 
L 96.986853 124.10628 
L 98.07119 117.060316 
L 98.613359 110.989395 
L 99.155527 111.364469 
L 99.697696 112.598926 
L 100.239864 112.269855 
L 100.782033 106.419891 
L 101.86637 119.780302 
L 102.408538 118.15676 
L 102.950707 117.269104 
L 103.492876 123.483274 
L 104.035044 122.44865 
L 104.577213 125.844037 
L 105.119381 122.797473 
L 105.66155 120.391391 
L 106.203718 123.060101 
L 106.745887 123.102783 
L 107.288055 127.7908 
L 107.830224 129.355338 
L 108.372392 125.170225 
L 108.914561 129.047933 
L 109.45673 126.82836 
L 109.998898 129.18674 
L 110.541067 133.905162 
L 111.083235 133.921772 
L 111.625404 137.553391 
L 112.167572 138.770226 
L 112.709741 139.376766 
L 113.251909 131.513813 
L 113.794078 132.721115 
L 114.878415 123.582938 
L 115.420584 125.924816 
L 115.962752 126.720319 
L 116.504921 130.276034 
L 117.047089 130.936017 
L 117.589258 130.551373 
L 118.131426 129.561056 
L 118.673595 123.764751 
L 119.757932 117.461643 
L 120.3001 117.012181 
L 120.842269 114.487515 
L 121.384437 119.380095 
L 121.926606 116.107193 
L 122.468775 119.379878 
L 123.010943 117.612077 
L 123.553112 121.259512 
L 124.09528 121.020753 
L 124.637449 117.758034 
L 125.179617 119.519082 
L 126.263954 131.524646 
L 126.806123 133.453751 
L 127.348291 133.040724 
L 127.89046 131.045864 
L 128.432629 135.123766 
L 130.059134 129.060139 
L 130.601303 133.26829 
L 131.143471 136.456983 
L 131.68564 136.615362 
L 132.227808 133.865946 
L 132.769977 139.213404 
L 133.312145 139.181555 
L 133.854314 138.081572 
L 134.396482 138.704578 
L 134.938651 142.807504 
L 135.48082 139.924771 
L 136.022988 134.947224 
L 137.107325 145.275659 
L 137.649494 149.991408 
L 138.733831 148.004419 
L 139.275999 149.500998 
L 139.818168 149.345075 
L 140.360336 146.758986 
L 141.444674 148.231299 
L 141.986842 150.862382 
L 142.529011 150.517134 
L 143.071179 147.73735 
L 143.613348 151.449422 
L 144.155516 148.790534 
L 144.697685 148.012111 
L 145.239853 144.279095 
L 145.782022 143.382628 
L 146.32419 148.022619 
L 146.866359 149.67281 
L 147.408527 144.545623 
L 147.950696 144.77893 
L 148.492865 147.100514 
L 149.035033 149.965373 
L 150.11937 150.288449 
L 150.661539 147.127705 
L 151.203707 147.010961 
L 151.745876 151.147723 
L 152.288044 151.092763 
L 152.830213 149.843827 
L 153.372381 150.518975 
L 154.456719 135.294024 
L 154.998887 137.2739 
L 155.541056 138.321956 
L 156.083224 137.128449 
L 156.625393 140.694528 
L 157.167561 141.35256 
L 157.70973 136.02601 
L 158.251898 141.075019 
L 158.794067 143.012645 
L 159.336235 143.014812 
L 159.878404 140.177216 
L 160.420572 139.787986 
L 160.962741 135.317496 
L 161.50491 138.081933 
L 162.047078 135.470675 
L 162.589247 137.149248 
L 163.131415 139.863023 
L 163.673584 146.34827 
L 164.215752 150.208177 
L 164.757921 148.522851 
L 165.300089 150.868954 
L 165.842258 150.454375 
L 166.384426 152.515967 
L 166.926595 149.941215 
L 167.468764 146.175267 
L 168.010932 149.208327 
L 168.553101 146.251604 
L 169.095269 145.112261 
L 169.637438 144.600763 
L 170.179606 141.933606 
L 171.263943 147.340898 
L 171.806112 142.141094 
L 172.34828 144.852161 
L 172.890449 140.478409 
L 173.432617 145.826337 
L 173.974786 141.336311 
L 174.516955 144.028347 
L 175.059123 142.86463 
L 175.601292 145.115186 
L 176.14346 139.431653 
L 176.685629 145.711759 
L 177.227797 142.785802 
L 177.769966 145.160107 
L 178.312134 142.590267 
L 178.854303 142.665195 
L 179.396471 147.118352 
L 179.93864 145.194881 
L 180.480809 144.224389 
L 181.022977 143.819884 
L 181.565146 147.694632 
L 182.107314 145.46892 
L 182.649483 143.741453 
L 183.191651 138.758165 
L 183.73382 138.27606 
L 184.275988 143.044458 
L 184.818157 144.164049 
L 185.360325 144.265048 
L 185.902494 138.189288 
L 186.444662 143.478645 
L 186.986831 143.519305 
L 187.529 142.068152 
L 188.071168 147.486855 
L 188.613337 149.004991 
L 189.155505 152.423309 
L 189.697674 151.84006 
L 190.239842 151.896752 
L 190.782011 152.097705 
L 191.324179 147.476419 
L 191.866348 151.291549 
L 192.408516 150.946482 
L 193.492854 157.121003 
L 194.035022 155.690722 
L 195.119359 149.47991 
L 196.203696 145.213803 
L 196.745865 148.613306 
L 197.288033 149.580585 
L 197.830202 151.668068 
L 198.37237 145.656764 
L 198.914539 147.36975 
L 199.456707 153.75407 
L 199.998876 157.378612 
L 200.541045 156.073199 
L 201.083213 159.45212 
L 201.625382 161.247834 
L 202.16755 160.833291 
L 202.709719 156.370095 
L 203.251887 158.616535 
L 203.794056 160.362525 
L 204.336224 154.471757 
L 204.878393 153.069786 
L 205.420561 157.824606 
L 205.96273 158.153713 
L 206.504899 159.166345 
L 207.047067 164.551971 
L 207.589236 163.737366 
L 208.131404 166.130628 
L 208.673573 164.73653 
L 209.215741 164.21391 
L 209.75791 157.819659 
L 210.300078 154.973794 
L 210.842247 159.110844 
L 211.384415 155.505514 
L 211.926584 155.937389 
L 212.468752 155.465287 
L 213.010921 154.116218 
L 213.55309 158.908953 
L 214.095258 157.585269 
L 214.637427 151.602925 
L 215.179595 156.800418 
L 215.721764 157.607224 
L 216.263932 152.726741 
L 216.806101 152.367627 
L 217.348269 151.647232 
L 217.890438 150.658541 
L 218.432606 153.076466 
L 218.974775 156.097609 
L 219.516944 156.110826 
L 220.059112 156.755461 
L 220.601281 155.460846 
L 221.685618 161.779915 
L 222.227786 160.563369 
L 222.769955 160.511912 
L 223.312123 162.522012 
L 223.854292 163.14982 
L 224.39646 162.200272 
L 224.938629 157.589061 
L 225.480797 156.770519 
L 226.022966 154.381698 
L 226.565135 148.926669 
L 227.107303 152.367266 
L 227.649472 147.402755 
L 228.19164 147.763096 
L 228.733809 146.775921 
L 229.275977 148.520395 
L 229.818146 149.423867 
L 230.360314 151.304873 
L 230.902483 155.408197 
L 231.444651 152.310031 
L 231.98682 154.994738 
L 232.528989 156.154158 
L 233.613326 157.692732 
L 234.155494 161.862101 
L 234.697663 164.33932 
L 235.239831 165.548391 
L 236.324168 161.904856 
L 236.866337 160.398094 
L 237.408505 157.058171 
L 237.950674 158.220372 
L 238.492842 158.131325 
L 239.035011 159.128936 
L 239.57718 161.26282 
L 240.119348 159.253443 
L 240.661517 162.565921 
L 242.288022 166.860881 
L 242.830191 166.132398 
L 243.372359 165.960298 
L 243.914528 166.242353 
L 244.998865 170.425155 
L 246.083202 169.615893 
L 246.625371 163.077095 
L 247.167539 160.826972 
L 247.709708 155.204429 
L 248.794045 150.954029 
L 249.336213 150.271911 
L 249.878382 153.197362 
L 250.42055 153.181041 
L 250.962719 152.207118 
L 251.504887 150.372224 
L 252.589225 160.09885 
L 253.131393 155.773197 
L 253.673562 153.435941 
L 254.21573 155.02767 
L 254.757899 153.522425 
L 255.300067 157.325205 
L 255.842236 153.934115 
L 256.384404 157.378756 
L 256.926573 157.693996 
L 257.468741 162.215582 
L 258.01091 161.166767 
L 258.553079 159.712545 
L 259.637416 151.96435 
L 260.179584 147.404885 
L 260.721753 147.60544 
L 261.80609 153.759234 
L 262.348258 155.59355 
L 263.432595 163.194994 
L 263.974764 162.23602 
L 264.516933 158.713129 
L 265.059101 159.799859 
L 265.60127 159.142405 
L 266.143438 162.292027 
L 266.685607 161.715892 
L 267.227775 162.832124 
L 267.769944 164.732016 
L 268.312112 167.826896 
L 268.854281 167.731637 
L 269.396449 163.030368 
L 269.938618 168.56029 
L 270.480786 164.704861 
L 271.022955 165.568685 
L 271.565124 166.055664 
L 272.107292 161.830036 
L 272.649461 162.534722 
L 273.191629 163.445958 
L 273.733798 161.401157 
L 274.275966 161.207283 
L 275.902472 169.568662 
L 276.44464 164.877756 
L 276.986809 169.14148 
L 277.528978 170.545581 
L 278.071146 166.416511 
L 278.613315 165.233837 
L 279.155483 167.409572 
L 280.23982 173.241698 
L 280.781989 171.421141 
L 281.324157 170.13483 
L 281.866326 170.573386 
L 282.408494 162.708773 
L 282.950663 163.046257 
L 283.492831 159.716192 
L 284.035 159.838461 
L 284.577169 160.799637 
L 285.119337 161.343815 
L 285.661506 160.253762 
L 286.203674 160.395422 
L 287.288011 170.360698 
L 287.83018 166.447927 
L 288.372348 169.687752 
L 288.914517 166.412575 
L 289.456685 157.184737 
L 289.998854 156.766547 
L 290.541023 160.222527 
L 291.083191 154.488801 
L 291.62536 156.690933 
L 292.167528 160.197755 
L 293.251865 153.170533 
L 293.794034 152.515461 
L 294.336202 147.893417 
L 294.878371 149.182905 
L 295.420539 150.050954 
L 295.962708 149.744524 
L 296.504876 148.38473 
L 297.589214 158.319241 
L 298.131382 153.503972 
L 298.673551 153.830804 
L 299.757888 158.899456 
L 300.300056 155.207317 
L 300.842225 153.73634 
L 301.384393 153.747968 
L 301.926562 153.076863 
L 302.46873 151.714361 
L 303.010899 149.199624 
L 303.553068 152.758301 
L 304.095236 153.638266 
L 304.637405 151.472532 
L 305.179573 155.211073 
L 305.721742 158.171623 
L 306.26391 154.202232 
L 306.806079 151.387313 
L 307.348247 147.941516 
L 307.890416 142.157849 
L 308.432584 141.353788 
L 308.974753 141.246469 
L 309.516921 140.305912 
L 310.05909 146.258357 
L 311.143427 148.372525 
L 311.685596 151.586026 
L 312.227764 147.986545 
L 312.769933 145.886712 
L 313.85427 148.411957 
L 314.396438 147.532895 
L 314.938607 149.217643 
L 315.480775 155.354574 
L 316.022944 159.364914 
L 316.565113 156.081685 
L 317.107281 155.990832 
L 317.64945 152.097632 
L 318.191618 153.26756 
L 319.275955 158.203581 
L 319.818124 155.083893 
L 320.360292 153.288721 
L 320.902461 155.418633 
L 321.444629 155.04457 
L 321.986798 155.545596 
L 323.071135 157.125192 
L 323.613304 156.115375 
L 324.155472 159.543262 
L 324.697641 158.794701 
L 325.239809 162.475899 
L 325.781978 161.218693 
L 326.324146 163.651316 
L 326.866315 159.83633 
L 327.408483 162.964648 
L 327.950652 164.164547 
L 328.49282 167.854664 
L 329.034989 169.571948 
L 330.119326 162.327668 
L 330.661495 162.223021 
L 331.203663 159.562942 
L 331.745832 163.442744 
L 332.288 161.421018 
L 332.830169 165.405034 
L 333.372337 167.261882 
L 333.914506 164.495965 
L 334.456674 165.648849 
L 334.998843 164.880681 
L 335.541011 165.645599 
L 336.08318 167.366096 
L 336.625349 168.649301 
L 337.709686 164.377921 
L 338.251854 164.362213 
L 338.794023 165.170933 
L 339.336191 169.281406 
L 339.87836 168.295928 
L 340.962697 162.246926 
L 341.504865 160.779524 
L 342.047034 159.867024 
L 342.589203 162.016544 
L 343.131371 162.77424 
L 343.67354 159.471294 
L 344.757877 164.873712 
L 345.300045 163.547897 
L 345.842214 163.066081 
L 346.384382 159.687521 
L 346.926551 163.877545 
L 347.468719 160.414849 
L 348.010888 158.93275 
L 348.553056 160.750491 
L 349.095225 165.471115 
L 349.637394 167.273871 
L 351.263899 156.985807 
L 351.806068 161.658008 
L 352.348236 159.629853 
L 352.890405 158.978826 
L 353.432573 160.022297 
L 353.974742 161.410221 
L 354.51691 161.841374 
L 355.059079 160.973398 
L 355.601248 163.305021 
L 356.143416 163.183764 
L 356.685585 161.663785 
L 357.227753 164.641163 
L 357.769922 170.178018 
L 358.31209 170.286203 
L 358.854259 170.672183 
L 359.396427 163.142165 
L 359.938596 163.351819 
L 360.480764 165.6053 
L 361.022933 164.290066 
L 362.10727 165.989691 
L 362.649439 160.84203 
L 363.191607 161.125313 
L 363.733776 157.61311 
L 364.275944 152.229939 
L 364.818113 150.3537 
L 365.360281 154.19566 
L 365.90245 155.465684 
L 366.444618 157.804349 
L 366.986787 157.826267 
L 367.528955 159.169668 
L 368.071124 159.858213 
L 368.613293 158.190364 
L 370.781967 169.32185 
L 371.324135 168.154666 
L 371.866304 168.84982 
L 372.408472 163.308054 
L 372.950641 161.602218 
L 373.492809 162.322251 
L 374.034978 164.434867 
L 374.577146 168.300984 
L 375.119315 166.417992 
L 375.661484 172.181798 
L 376.203652 173.424307 
L 376.745821 167.365554 
L 377.287989 167.91829 
L 377.830158 171.192817 
L 378.372326 171.063182 
L 378.914495 172.712254 
L 379.456663 175.683565 
L 380.541 175.624922 
L 381.083169 178.4354 
L 381.625338 175.191169 
L 382.167506 173.560044 
L 382.709675 171.190687 
L 383.251843 172.91335 
L 383.794012 177.436272 
L 384.33618 178.05787 
L 384.878349 175.936913 
L 385.962686 180.867589 
L 386.504854 182.176468 
L 387.047023 177.212824 
L 387.589191 177.461296 
L 388.13136 174.937532 
L 388.673529 174.998667 
L 389.215697 173.526281 
L 389.757866 176.51164 
L 390.300034 172.419257 
L 390.842203 173.242023 
L 391.384371 175.308563 
L 391.92654 174.967287 
L 392.468708 169.355035 
L 393.010877 171.464328 
L 393.553045 174.103139 
L 394.095214 170.736423 
L 394.637383 168.126681 
L 395.179551 168.672989 
L 395.72172 164.887361 
L 396.263888 168.975555 
L 396.806057 174.982525 
L 397.348225 177.507951 
L 397.890394 176.170942 
L 398.432562 176.761232 
L 398.974731 176.816372 
L 399.516899 174.561844 
L 400.059068 178.194835 
L 400.601236 176.777373 
L 401.143405 174.595101 
L 401.685574 176.191452 
L 402.227742 175.439064 
L 402.769911 177.801994 
L 403.312079 176.857104 
L 403.854248 177.540125 
L 404.396416 177.389835 
L 404.938585 177.622744 
L 405.480753 177.228098 
L 406.022922 182.120064 
L 406.56509 184.143127 
L 407.107259 181.711913 
L 407.649428 178.518272 
L 408.191596 179.562429 
L 408.733765 177.952862 
L 409.275933 179.703583 
L 409.818102 178.3357 
L 410.902439 177.249114 
L 411.444607 172.798087 
L 411.986776 171.620829 
L 412.528944 162.305677 
L 413.071113 162.674865 
L 413.613282 165.209282 
L 414.15545 162.519484 
L 414.697619 168.326622 
L 415.239787 171.003528 
L 415.781956 171.498416 
L 416.324124 168.813385 
L 416.866293 169.899393 
L 417.408461 168.906729 
L 417.95063 167.338725 
L 418.492798 168.339333 
L 419.034967 170.249732 
L 419.577135 173.407191 
L 420.119304 171.423379 
L 420.661473 167.198365 
L 421.203641 166.564707 
L 421.74581 164.211562 
L 422.287978 160.837155 
L 422.830147 162.920774 
L 423.372315 167.016226 
L 423.914484 172.190248 
L 424.456652 167.452507 
L 424.998821 165.394093 
L 425.540989 162.023838 
L 426.083158 155.540685 
L 426.625327 156.178965 
L 427.709664 161.548017 
L 428.251832 161.736041 
L 428.794001 157.112481 
L 428.794001 157.112481 
" style="fill:none;stroke:#1f77b4;stroke-linecap:square;stroke-width:1.5;"/>
   </g>
   <g id="patch_3">
    <path d="M 38.27 303.64 
L 38.27 14.76 
" style="fill:none;stroke:#000000;stroke-linecap:square;stroke-linejoin:miter;stroke-width:0.8;"/>
   </g>
   <g id="patch_4">
    <path d="M 447.390382 303.64 
L 447.390382 14.76 
" style="fill:none;stroke:#000000;stroke-linecap:square;stroke-linejoin:miter;stroke-width:0.8;"/>
   </g>
   <g id="patch_5">
    <path d="M 38.27 303.64 
L 447.390382 303.64 
" style="fill:none;stroke:#000000;stroke-linecap:square;stroke-linejoin:miter;stroke-width:0.8;"/>
   </g>
   <g id="patch_6">
    <path d="M 38.27 14.76 
L 447.390382 14.76 
" style="fill:none;stroke:#000000;stroke-linecap:square;stroke-linejoin:miter;stroke-width:0.8;"/>
   </g>
  </g>
 </g>
 <defs>
  <clipPath id="p4cc9136189">
   <rect height="288.88" width="409.120382" x="38.27" y="14.76"/>
  </clipPath>
 </defs>
</svg>
